<svg width="1283" height="548" viewBox="0 0 1283 548" fill="none" xmlns="http://www.w3.org/2000/svg">
<path d="M1 546.163C155.59 463.669 420.979 404.479 629 407.5C840.342 403.041 1127.63 460.608 1282.02 546.163" stroke="#F7D070" stroke-width="3"/>
<path d="M254.5 185C254.5 184.172 253.828 183.5 253 183.5C252.172 183.5 251.5 184.172 251.5 185H254.5ZM746.5 176.5H748V175.314L746.846 175.041L746.5 176.5ZM631.5 2C631.5 1.17157 630.828 0.5 630 0.5C629.172 0.5 628.5 1.17157 628.5 2H631.5ZM643.5 19.5C643.5 18.6716 642.828 18 642 18C641.172 18 640.5 18.6716 640.5 19.5H643.5ZM717 169.5L717.346 168.041L717.176 168H717V169.5ZM731.75 98L732.063 96.533C731.62 96.4386 731.158 96.5492 730.806 96.834C730.454 97.1188 730.25 97.5473 730.25 98H731.75ZM781 108.5L781.99 107.373L781.696 107.115L781.313 107.033L781 108.5ZM834.5 155.5H836V154.821L835.49 154.373L834.5 155.5ZM446.5 94.5V93H445V94.5H446.5ZM508 94.5L508.307 93.0317L508.155 93H508V94.5ZM541.5 101.5H543V100.281L541.807 100.032L541.5 101.5ZM531 165L531.348 163.541L531.177 163.5H531V165ZM651 48L651.46 46.5722L651.236 46.5H651V48ZM680.5 57.5H682C682 56.8487 681.58 56.2718 680.96 56.0722L680.5 57.5ZM163 391.5C163 390.672 162.328 390 161.5 390C160.672 390 160 390.672 160 391.5H163ZM466.5 81.5V80H465V81.5H466.5ZM497 81.5L497.431 80.0633L497.22 80H497V81.5ZM517 87.5H518.5V86.384L517.431 86.0633L517 87.5ZM861.5 221.5L860.275 220.635L860 221.024V221.5H861.5ZM873.5 179.5V178H872V179.5H873.5ZM918 179.5L918.393 178.052L918.2 178H918V179.5ZM910.5 338V336.5H909V338H910.5ZM953 189H954.5V187.853L953.393 187.552L953 189ZM965 226.5H966.5V225.96L966.156 225.544L965 226.5ZM1037.5 338L1037.65 336.507L1037.57 336.5H1037.5V338ZM1097.5 344H1099V342.643L1097.65 342.507L1097.5 344ZM1071 430.5V429H1069.5V430.5H1071ZM1145 430.5L1145.05 429.001L1145.02 429H1145V430.5ZM1176.5 431.5H1178V430.047L1176.55 430.001L1176.5 431.5ZM977 314V312.5H975.5V314H977ZM1023.5 314L1023.63 312.506L1023.57 312.5H1023.5V314ZM1063 317.5H1064.5V316.127L1063.13 316.006L1063 317.5ZM893 167.5V166H891.5V167.5H893ZM939 172.5H940.5V171.322L939.355 171.043L939 172.5ZM911 117.5C911 116.672 910.328 116 909.5 116C908.672 116 908 116.672 908 117.5H911ZM920 146C920 145.172 919.328 144.5 918.5 144.5C917.672 144.5 917 145.172 917 146H920ZM129.5 426.5V425H128V426.5H129.5ZM188 232.5L186.861 231.524L186.5 231.945V232.5H188ZM200 218.5V217H199.31L198.861 217.524L200 218.5ZM246 218.5L246.221 217.016L246.111 217H246V218.5ZM244.5 357V355.5H243V357H244.5ZM279.5 223.5L280.599 222.479L280.241 222.094L279.721 222.016L279.5 223.5ZM292.5 237.5H294V236.911L293.599 236.479L292.5 237.5ZM322.5 357L322.596 355.503L322.548 355.5H322.5V357ZM361.5 359.5H363V358.093L361.596 358.003L361.5 359.5ZM301 342.5V341H299.5V342.5H301ZM316 342.5L316.13 341.006L316.065 341H316V342.5ZM327.5 343.5H329V342.125L327.63 342.006L327.5 343.5ZM340.5 291.5V290H339V291.5H340.5ZM390.5 291.5L390.617 290.005L390.559 290H390.5V291.5ZM385 215.5L386.408 214.984C386.196 214.405 385.652 214.015 385.036 214C384.419 213.986 383.857 214.35 383.618 214.918L385 215.5ZM564.5 173H566V171.816L564.848 171.541L564.5 173ZM552 237V235.5H550.5V237H552ZM604 237V238.5H605.5V237H604ZM604 48V46.5C603.172 46.5 602.5 47.1716 602.5 48H604ZM651 169.5H649.5V171H651V169.5ZM254.5 219.5V185H251.5V219.5H254.5ZM267 221.5V177.5H264V221.5H267ZM272 177.5V222.5H275V177.5H272ZM269.5 175C270.881 175 272 176.119 272 177.5H275C275 174.462 272.538 172 269.5 172V175ZM267 177.5C267 176.119 268.119 175 269.5 175V172C266.462 172 264 174.462 264 177.5H267ZM745 176.5V410H748V176.5H745ZM631.5 48.5V2H628.5V48.5H631.5ZM643.5 48.5V19.5H640.5V48.5H643.5ZM716.654 170.959L731.404 174.459L732.096 171.541L717.346 168.041L716.654 170.959ZM731.404 174.459L746.154 177.959L746.846 175.041L732.096 171.541L731.404 174.459ZM733.25 173V98H730.25V173H733.25ZM730.756 99.1234L785.006 147.123L786.994 144.877L732.744 96.8766L730.756 99.1234ZM784.5 146V413.5H787.5V146H784.5ZM731.437 99.467L780.687 109.967L781.313 107.033L732.063 96.533L731.437 99.467ZM780.01 109.627L833.51 156.627L835.49 154.373L781.99 107.373L780.01 109.627ZM833 155.5V419H836V155.5H833ZM785.712 147.472L834.212 156.972L834.788 154.028L786.288 144.528L785.712 147.472ZM424 421V166H421V421H424ZM445 94.5V417.5H448V94.5H445ZM446.5 96H508V93H446.5V96ZM507.693 95.9683L541.193 102.968L541.807 100.032L508.307 93.0317L507.693 95.9683ZM540 101.5V167.5H543V101.5H540ZM506.5 94.5V165H509.5V94.5H506.5ZM506.5 165V412.5H509.5V165H506.5ZM531 163.5H508V166.5H531V163.5ZM650.54 49.4278L680.04 58.9278L680.96 56.0722L651.46 46.5722L650.54 49.4278ZM679 57.5V169.5H682V57.5H679ZM163 426.5V391.5H160V426.5H163ZM468 94.5V81.5H465V94.5H468ZM466.5 83H497V80H466.5V83ZM495.5 81.5V94.5H498.5V81.5H495.5ZM496.569 82.9367L516.569 88.9367L517.431 86.0633L497.431 80.0633L496.569 82.9367ZM515.5 87.5V96H518.5V87.5H515.5ZM863 423V221.5H860V423H863ZM862.725 222.365L874.725 205.365L872.275 203.635L860.275 220.635L862.725 222.365ZM875 204.5V179.5H872V204.5H875ZM873.5 181H918V178H873.5V181ZM916.5 179.5V204.5H919.5V179.5H916.5ZM916.808 205.411L929.808 222.411L932.192 220.589L919.192 203.589L916.808 205.411ZM929.5 221.5V338H932.5V221.5H929.5ZM931 336.5H910.5V339.5H931V336.5ZM909 338V430.5H912V338H909ZM917.607 180.948L952.607 190.448L953.393 187.552L918.393 178.052L917.607 180.948ZM951.5 189V212H954.5V189H951.5ZM951.844 212.956L963.844 227.456L966.156 225.544L954.156 211.044L951.844 212.956ZM963.5 226.5V338H966.5V226.5H963.5ZM965 336.5H931V339.5H965V336.5ZM873.5 206H918V203H873.5V206ZM953.314 210.533L918.314 203.033L917.686 205.967L952.686 213.467L953.314 210.533ZM861.5 223H931V220H861.5V223ZM930.782 222.984L964.782 227.984L965.218 225.016L931.218 220.016L930.782 222.984ZM1036 338V456.5H1039V338H1036ZM1096 344V430.5H1099V344H1096ZM1097.5 429H1071V432H1097.5V429ZM1069.5 430.5V465H1072.5V430.5H1069.5ZM1097.5 432H1145V429H1097.5V432ZM1143.5 430.5V487.5H1146.5V430.5H1143.5ZM1144.95 431.999L1176.45 432.999L1176.55 430.001L1145.05 429.001L1144.95 431.999ZM1175 431.5V499.5H1178V431.5H1175ZM965 339.5H977V336.5H965V339.5ZM978.5 338V314H975.5V338H978.5ZM977 315.5H1023.5V312.5H977V315.5ZM977 339.5H1023.5V336.5H977V339.5ZM1023.5 339.5H1037.5V336.5H1023.5V339.5ZM1022 314V338H1025V314H1022ZM1023.37 315.494L1062.87 318.994L1063.13 316.006L1023.63 312.506L1023.37 315.494ZM1037.35 339.493L1062.85 342.043L1063.15 339.057L1037.65 336.507L1037.35 339.493ZM1062.85 342.043L1097.35 345.493L1097.65 342.507L1063.15 339.057L1062.85 342.043ZM1061.5 317.5V340.55H1064.5V317.5H1061.5ZM894.5 179.5V167.5H891.5V179.5H894.5ZM917 167.5V179.5H920V167.5H917ZM918.145 168.957L938.645 173.957L939.355 171.043L918.855 166.043L918.145 168.957ZM937.5 172.5V185H940.5V172.5H937.5ZM893 169H909.5V166H893V169ZM909.5 169H918.5V166H909.5V169ZM911 167.5V117.5H908V167.5H911ZM917 146V167.5H920V146H917ZM131 491V426.5H128V491H131ZM129.5 428H188V425H129.5V428ZM186.5 426.5V472H189.5V426.5H186.5ZM189.5 426.5V232.5H186.5V426.5H189.5ZM189.139 233.476L201.139 219.476L198.861 217.524L186.861 231.524L189.139 233.476ZM200 220H246V217H200V220ZM244.841 219.452L256.341 233.452L258.659 231.548L247.159 217.548L244.841 219.452ZM256 232.5V357H259V232.5H256ZM257.5 355.5H244.5V358.5H257.5V355.5ZM243 357V456.5H246V357H243ZM245.779 219.984L279.279 224.984L279.721 222.016L246.221 217.016L245.779 219.984ZM278.401 224.521L291.401 238.521L293.599 236.479L280.599 222.479L278.401 224.521ZM292.712 236.015L257.712 231.015L257.288 233.985L292.288 238.985L292.712 236.015ZM291 237.5V357H294V237.5H291ZM292.5 355.5H257.5V358.5H292.5V355.5ZM321 357V438.5H324V357H321ZM360 359.5V431H363V359.5H360ZM292.5 358.5H301V355.5H292.5V358.5ZM302.5 357V342.5H299.5V357H302.5ZM301 344H316V341H301V344ZM301 358.5H316V355.5H301V358.5ZM316 358.5H322.5V355.5H316V358.5ZM314.5 342.5V357H317.5V342.5H314.5ZM315.87 343.994L327.37 344.994L327.63 342.006L316.13 341.006L315.87 343.994ZM326 343.5V357H329V343.5H326ZM322.404 358.497L340.404 359.651L340.596 356.657L322.596 355.503L322.404 358.497ZM340.404 359.651L361.404 360.997L361.596 358.003L340.596 356.657L340.404 359.651ZM342 358.154V291.5H339V358.154H342ZM389 291.5V426H392V291.5H389ZM340.5 293H353V290H340.5V293ZM353 293H390.5V290H353V293ZM354.382 292.082L386.382 216.082L383.618 214.918L351.618 290.918L354.382 292.082ZM390.383 292.995L413.383 294.792L413.617 291.801L390.617 290.005L390.383 292.995ZM413.383 294.792L422.383 295.495L422.617 292.505L413.617 291.801L413.383 294.792ZM383.592 216.016L412.092 293.813L414.908 292.781L386.408 214.984L383.592 216.016ZM383.5 215.5V292H386.5V215.5H383.5ZM834.5 343H861.5V340H834.5V343ZM700.5 169.5V95.25H697.5V169.5H700.5ZM706 95.25V169.5H709V95.25H706ZM703.25 92.5C704.769 92.5 706 93.7312 706 95.25H709C709 92.0744 706.426 89.5 703.25 89.5V92.5ZM700.5 95.25C700.5 93.7312 701.731 92.5 703.25 92.5V89.5C700.074 89.5 697.5 92.0744 697.5 95.25H700.5ZM530.652 166.459L564.152 174.459L564.848 171.541L531.348 163.541L530.652 166.459ZM563 173V237H566V173H563ZM422.5 168H446.5V165H422.5V168ZM529.5 164.5V410H532.5V164.5H529.5ZM553.5 408V237H550.5V408H553.5ZM552 238.5H604V235.5H552V238.5ZM605.5 237V48H602.5V237H605.5ZM604 49.5H651V46.5H604V49.5ZM649.5 48V169.5H652.5V48H649.5ZM651 171H717V168H651V171ZM715.5 169.5V408H718.5V169.5H715.5ZM188 234H257.5V231H188V234Z" fill="#A081D9"/>
</svg>
