<svg width="1424" height="207" viewBox="0 0 1424 207" fill="none" xmlns="http://www.w3.org/2000/svg">
<path d="M1 119.326C114.5 95.9928 391.9 53.6261 593.5 70.8261C845.5 92.3261 895 135.826 1105 145.826C1273 153.826 1397 131.493 1438 119.326" stroke="#E9B949" stroke-width="3"/>
<path d="M1 119.326C114.5 95.993 286.9 -13.3738 488.5 3.82617C740.5 25.3262 892 194.326 1102 204.326C1270 212.326 1397 131.493 1438 119.326" stroke="#E9B949" stroke-width="3"/>
<path d="M1 119.326C114.5 95.9928 317.4 23.6263 519 40.8263C771 62.3263 900 159.326 1110 169.326C1278 177.326 1397 131.493 1438 119.326" stroke="#34126F" stroke-width="3"/>
</svg>
