<svg xmlns="http://www.w3.org/2000/svg" version="1.1" xmlns:xlink="http://www.w3.org/1999/xlink" xmlns:svgjs="http://svgjs.com/svgjs" viewBox="0 0 24 24" height="24" width="24"><title>Exported from Streamline App (https://app.streamlineicons.com)</title><g transform="matrix(1,0,0,1,0,0)"><path d="M 13.068,12.418c-0.582,0.59-1.531,0.596-2.121,0.015c-0.005-0.005-0.01-0.01-0.015-0.015l-5.324-5.4 C4.463,5.917,4.175,4.195,4.9,2.781l0,0c1-1.872,3.328-2.578,5.199-1.578c0.313,0.167,0.602,0.378,0.858,0.624L12,2.841 l1.044-1.014c1.527-1.474,3.959-1.431,5.433,0.096c0.247,0.256,0.457,0.544,0.624,0.858l0,0c0.727,1.415,0.438,3.139-0.709,4.241 L13.068,12.418z " stroke="#000000" fill="none" stroke-width="1.5" stroke-linecap="round" stroke-linejoin="round"></path><path d="M 3.75,23.25l-2.014-2.381C1.098,20.071,0.75,19.08,0.75,18.058v-5.172c0-0.828,0.672-1.5,1.5-1.5l0,0 c0.828,0,1.5,0.672,1.5,1.5v3.75 " stroke="#000000" fill="none" stroke-width="1.5" stroke-linecap="round" stroke-linejoin="round"></path><path d="M 8.25,23.25v-3c0-0.89-0.263-1.76-0.757-2.5l-1.142-1.71c-0.4-0.662-1.26-0.875-1.922-0.475 C4.41,15.576,4.392,15.588,4.374,15.6l0,0C3.79,15.992,3.587,16.756,3.9,17.386l1.352,2.25 " stroke="#000000" fill="none" stroke-width="1.5" stroke-linecap="round" stroke-linejoin="round"></path><path d="M 20.25,23.25l2.014-2.381 c0.638-0.798,0.986-1.789,0.986-2.811v-5.172c0-0.828-0.672-1.5-1.5-1.5l0,0c-0.828,0-1.5,0.672-1.5,1.5v3.75 " stroke="#000000" fill="none" stroke-width="1.5" stroke-linecap="round" stroke-linejoin="round"></path><path d="M 15.75,23.25v-3 c0-0.89,0.263-1.76,0.757-2.5l1.142-1.712c0.398-0.663,1.258-0.878,1.921-0.481c0.019,0.011,0.038,0.023,0.056,0.036l0,0 c0.588,0.392,0.792,1.159,0.476,1.791l-1.352,2.25" stroke="#000000" fill="none" stroke-width="1.5" stroke-linecap="round" stroke-linejoin="round"></path></g></svg>