<svg width="190" height="190" viewBox="0 0 190 190" fill="none" xmlns="http://www.w3.org/2000/svg">
<circle cx="181.739" cy="8.26087" r="8.26087" transform="rotate(90 181.739 8.26087)" fill="#EAE2F8"/>
<circle cx="156.956" cy="8.26087" r="8.26087" transform="rotate(90 156.956 8.26087)" fill="#EAE2F8"/>
<ellipse cx="156.956" cy="33.0436" rx="8.26087" ry="8.26087" transform="rotate(90 156.956 33.0436)" fill="#EAE2F8"/>
<ellipse cx="132.174" cy="8.26087" rx="8.26087" ry="8.26087" transform="rotate(90 132.174 8.26087)" fill="#EAE2F8"/>
<ellipse cx="132.174" cy="33.0436" rx="8.26087" ry="8.26087" transform="rotate(90 132.174 33.0436)" fill="#EAE2F8"/>
<ellipse cx="107.391" cy="8.26087" rx="8.26087" ry="8.26087" transform="rotate(90 107.391 8.26087)" fill="#EAE2F8"/>
<circle cx="107.391" cy="33.0436" r="8.26087" transform="rotate(90 107.391 33.0436)" fill="#EAE2F8"/>
<ellipse cx="82.6087" cy="8.26087" rx="8.26087" ry="8.26088" transform="rotate(90 82.6087 8.26087)" fill="#EAE2F8"/>
<ellipse cx="82.6087" cy="33.0436" rx="8.26087" ry="8.26088" transform="rotate(90 82.6087 33.0436)" fill="#EAE2F8"/>
<ellipse cx="57.8261" cy="8.26087" rx="8.26087" ry="8.26086" transform="rotate(90 57.8261 8.26087)" fill="#EAE2F8"/>
<ellipse cx="57.8261" cy="33.0436" rx="8.26087" ry="8.26086" transform="rotate(90 57.8261 33.0436)" fill="#EAE2F8"/>
<ellipse cx="33.0433" cy="8.26087" rx="8.26087" ry="8.26087" transform="rotate(90 33.0433 8.26087)" fill="#EAE2F8"/>
<ellipse cx="33.0433" cy="33.0436" rx="8.26087" ry="8.26087" transform="rotate(90 33.0433 33.0436)" fill="#EAE2F8"/>
<ellipse cx="57.8261" cy="57.8263" rx="8.26088" ry="8.26086" transform="rotate(90 57.8261 57.8263)" fill="#EAE2F8"/>
<ellipse cx="57.8261" cy="82.6085" rx="8.26087" ry="8.26086" transform="rotate(90 57.8261 82.6085)" fill="#EAE2F8"/>
<ellipse cx="33.0433" cy="57.8263" rx="8.26088" ry="8.26087" transform="rotate(90 33.0433 57.8263)" fill="#EAE2F8"/>
<ellipse cx="33.0433" cy="82.6085" rx="8.26087" ry="8.26087" transform="rotate(90 33.0433 82.6085)" fill="#EAE2F8"/>
<ellipse cx="107.391" cy="57.8263" rx="8.26088" ry="8.26087" transform="rotate(90 107.391 57.8263)" fill="#EAE2F8"/>
<circle cx="107.391" cy="82.6085" r="8.26087" transform="rotate(90 107.391 82.6085)" fill="#EAE2F8"/>
<circle cx="82.6087" cy="57.8263" r="8.26088" transform="rotate(90 82.6087 57.8263)" fill="#EAE2F8"/>
<ellipse cx="82.6087" cy="82.6085" rx="8.26087" ry="8.26088" transform="rotate(90 82.6087 82.6085)" fill="#EAE2F8"/>
<ellipse cx="132.174" cy="57.8263" rx="8.26088" ry="8.26087" transform="rotate(90 132.174 57.8263)" fill="#EAE2F8"/>
<ellipse cx="82.6087" cy="107.391" rx="8.26087" ry="8.26088" transform="rotate(90 82.6087 107.391)" fill="#EAE2F8"/>
<ellipse cx="57.8261" cy="107.391" rx="8.26087" ry="8.26086" transform="rotate(90 57.8261 107.391)" fill="#EAE2F8"/>
<ellipse cx="57.8261" cy="132.174" rx="8.26087" ry="8.26086" transform="rotate(90 57.8261 132.174)" fill="#EAE2F8"/>
<ellipse cx="33.0433" cy="107.391" rx="8.26087" ry="8.26087" transform="rotate(90 33.0433 107.391)" fill="#EAE2F8"/>
<circle cx="33.0433" cy="132.174" r="8.26087" transform="rotate(90 33.0433 132.174)" fill="#EAE2F8"/>
<ellipse cx="33.0433" cy="156.957" rx="8.26086" ry="8.26087" transform="rotate(90 33.0433 156.957)" fill="#EAE2F8"/>
<ellipse cx="8.26112" cy="8.26087" rx="8.26087" ry="8.26086" transform="rotate(90 8.26112 8.26087)" fill="#EAE2F8"/>
<ellipse cx="8.26112" cy="33.0436" rx="8.26087" ry="8.26086" transform="rotate(90 8.26112 33.0436)" fill="#EAE2F8"/>
<ellipse cx="8.26112" cy="57.8263" rx="8.26088" ry="8.26086" transform="rotate(90 8.26112 57.8263)" fill="#EAE2F8"/>
<ellipse cx="8.26112" cy="82.6085" rx="8.26087" ry="8.26086" transform="rotate(90 8.26112 82.6085)" fill="#EAE2F8"/>
<ellipse cx="8.26112" cy="107.391" rx="8.26087" ry="8.26086" transform="rotate(90 8.26112 107.391)" fill="#EAE2F8"/>
<ellipse cx="8.26112" cy="132.174" rx="8.26087" ry="8.26086" transform="rotate(90 8.26112 132.174)" fill="#EAE2F8"/>
<ellipse cx="8.26112" cy="156.957" rx="8.26086" ry="8.26086" transform="rotate(90 8.26112 156.957)" fill="#EAE2F8"/>
<circle cx="8.26112" cy="181.739" r="8.26086" transform="rotate(90 8.26112 181.739)" fill="#EAE2F8"/>
</svg>
