<svg class="svg-icon svg-purple" xmlns="http://www.w3.org/2000/svg" version="1.1" xmlns:xlink="http://www.w3.org/1999/xlink" xmlns:svgjs="http://svgjs.com/svgjs" viewBox="0 0 24 24" height="24" width="24"><g transform="matrix(1,0,0,1,0,0)"><path d="M 23.231,12.435c0.107-0.542-0.246-1.068-0.788-1.174c-0.063-0.012-0.127-0.019-0.191-0.019H10.424 c-0.475-0.001-0.883-0.335-0.978-0.8L9.168,9.051c-0.095-0.465-0.503-0.799-0.978-0.8H1.747C1.195,8.253,0.748,8.702,0.75,9.254 c0,0.064,0.006,0.127,0.019,0.19l2.593,13c0.095,0.465,0.503,0.799,0.978,0.8h15.918c0.475-0.001,0.883-0.335,0.978-0.8 C21.647,20.392,22.744,14.869,23.231,12.435z " fill="none" stroke-width="1.5" stroke-linecap="round" stroke-linejoin="round"></path><path d="M 4.5,5.25l0.02-3.5c0-0.552,0.448-1,1-1h12.963c0.552,0,1,0.448,1,1l0.02,6.5 " fill="none" stroke-width="1.5" stroke-linecap="round" stroke-linejoin="round"></path><path d="M 7.512,3.742L15.75,3.75 " fill="none" stroke-width="1.5" stroke-linecap="round" stroke-linejoin="round"></path><path d="M 12,6.75h3.75" fill="none" stroke-width="1.5" stroke-linecap="round" stroke-linejoin="round"></path></g></svg>