<svg class="svg-icon" xmlns="http://www.w3.org/2000/svg" version="1.1" xmlns:xlink="http://www.w3.org/1999/xlink" xmlns:svgjs="http://svgjs.com/svgjs" viewBox="0 0 24 24" height="24" width="24">
  <g transform="matrix(1,0,0,1,0,0)"><path d="M 14.584,18.75c-0.815,1.427-2.633,1.923-4.06,1.108c-0.462-0.264-0.844-0.646-1.108-1.108H0.75v1.5 c0,1.657,1.343,3,3,3h16.5c1.657,0,3-1.343,3-3v-1.5H14.584z " stroke="" fill="none" stroke-width="1.5" stroke-linecap="round" stroke-linejoin="round"></path><path d="M 21.75,18.75v-4.63 " stroke="" fill="none" stroke-width="1.5" stroke-linecap="round" stroke-linejoin="round"></path><path d="M 2.25,18.75v-9c0-1.657,1.343-3,3-3h9 " stroke="" fill="none" stroke-width="1.5" stroke-linecap="round" stroke-linejoin="round"></path><path d="M 16.5,0.75 H21c1.243,0,2.25,1.007,2.25,2.25v9c0,1.243-1.007,2.25-2.25,2.25h-4.5c-1.243,0-2.25-1.007-2.25-2.25V3 C14.25,1.757,15.257,0.75,16.5,0.75z " stroke="" fill="none" stroke-width="1.5" stroke-linecap="round" stroke-linejoin="round"></path><path d="M 23.25,11.25h-9 " stroke="" fill="none" stroke-width="1.5" stroke-linecap="round" stroke-linejoin="round"></path><path d="M 23.25,3.75h-9" stroke="" fill="none" stroke-width="1.5" stroke-linecap="round" stroke-linejoin="round"></path>
  </g>
</svg>