<svg width="832" height="582" viewBox="0 0 832 582" fill="none" xmlns="http://www.w3.org/2000/svg">
<circle cx="828" cy="249" r="4" transform="rotate(-180 828 249)" fill="#FBDCC1"/>
<circle cx="828" cy="233" r="4" transform="rotate(-180 828 233)" fill="#FBDCC1"/>
<circle cx="828" cy="217" r="4" transform="rotate(-180 828 217)" fill="#FBDCC1"/>
<circle cx="828" cy="201" r="4" transform="rotate(-180 828 201)" fill="#FBDCC1"/>
<circle cx="828" cy="185" r="4" transform="rotate(-180 828 185)" fill="#FBDCC1"/>
<circle cx="828" cy="169" r="4" transform="rotate(-180 828 169)" fill="#FBDCC1"/>
<circle cx="812" cy="233" r="4" transform="rotate(-180 812 233)" fill="#FBDCC1"/>
<circle cx="812" cy="217" r="4" transform="rotate(-180 812 217)" fill="#FBDCC1"/>
<circle cx="812" cy="201" r="4" transform="rotate(-180 812 201)" fill="#FBDCC1"/>
<circle cx="812" cy="185" r="4" transform="rotate(-180 812 185)" fill="#FBDCC1"/>
<circle cx="812" cy="169" r="4" transform="rotate(-180 812 169)" fill="#FBDCC1"/>
<circle cx="798" cy="217" r="4" transform="rotate(-180 798 217)" fill="#FBDCC1"/>
<circle cx="798" cy="201" r="4" transform="rotate(-180 798 201)" fill="#FBDCC1"/>
<circle cx="798" cy="185" r="4" transform="rotate(-180 798 185)" fill="#FBDCC1"/>
<circle cx="798" cy="169" r="4" transform="rotate(-180 798 169)" fill="#FBDCC1"/>
<circle cx="782" cy="201" r="4" transform="rotate(-180 782 201)" fill="#FBDCC1"/>
<circle cx="782" cy="185" r="4" transform="rotate(-180 782 185)" fill="#FBDCC1"/>
<circle cx="782" cy="169" r="4" transform="rotate(-180 782 169)" fill="#FBDCC1"/>
<circle cx="766" cy="185" r="4" transform="rotate(-180 766 185)" fill="#FBDCC1"/>
<circle cx="766" cy="169" r="4" transform="rotate(-180 766 169)" fill="#FBDCC1"/>
<circle cx="828" cy="153" r="4" transform="rotate(-180 828 153)" fill="#FBDCC1"/>
<circle cx="828" cy="137" r="4" transform="rotate(-180 828 137)" fill="#FBDCC1"/>
<circle cx="812" cy="153" r="4" transform="rotate(-180 812 153)" fill="#FBDCC1"/>
<circle cx="812" cy="137" r="4" transform="rotate(-180 812 137)" fill="#FBDCC1"/>
<circle cx="798" cy="153" r="4" transform="rotate(-180 798 153)" fill="#FBDCC1"/>
<circle cx="798" cy="137" r="4" transform="rotate(-180 798 137)" fill="#FBDCC1"/>
<circle cx="782" cy="153" r="4" transform="rotate(-180 782 153)" fill="#FBDCC1"/>
<circle cx="782" cy="137" r="4" transform="rotate(-180 782 137)" fill="#FBDCC1"/>
<circle cx="766" cy="153" r="4" transform="rotate(-180 766 153)" fill="#FBDCC1"/>
<circle cx="766" cy="137" r="4" transform="rotate(-180 766 137)" fill="#FBDCC1"/>
<circle cx="828" cy="121" r="4" transform="rotate(-180 828 121)" fill="#FBDCC1"/>
<circle cx="828" cy="105" r="4" transform="rotate(-180 828 105)" fill="#FBDCC1"/>
<circle cx="812" cy="121" r="4" transform="rotate(-180 812 121)" fill="#FBDCC1"/>
<circle cx="812" cy="105" r="4" transform="rotate(-180 812 105)" fill="#FBDCC1"/>
<circle cx="798" cy="121" r="4" transform="rotate(-180 798 121)" fill="#FBDCC1"/>
<circle cx="798" cy="105" r="4" transform="rotate(-180 798 105)" fill="#FBDCC1"/>
<circle cx="782" cy="121" r="4" transform="rotate(-180 782 121)" fill="#FBDCC1"/>
<circle cx="782" cy="105" r="4" transform="rotate(-180 782 105)" fill="#FBDCC1"/>
<circle cx="766" cy="121" r="4" transform="rotate(-180 766 121)" fill="#FBDCC1"/>
<circle cx="766" cy="105" r="4" transform="rotate(-180 766 105)" fill="#FBDCC1"/>
<circle cx="828" cy="89" r="4" transform="rotate(-180 828 89)" fill="#FBDCC1"/>
<circle cx="812" cy="89" r="4" transform="rotate(-180 812 89)" fill="#FBDCC1"/>
<circle cx="798" cy="89" r="4" transform="rotate(-180 798 89)" fill="#FBDCC1"/>
<circle cx="782" cy="89" r="4" transform="rotate(-180 782 89)" fill="#FBDCC1"/>
<circle cx="766" cy="89" r="4" transform="rotate(-180 766 89)" fill="#FBDCC1"/>
<circle cx="750" cy="169" r="4" transform="rotate(-180 750 169)" fill="#FBDCC1"/>
<circle cx="750" cy="169" r="4" transform="rotate(-180 750 169)" fill="#FBDCC1"/>
<circle cx="750" cy="153" r="4" transform="rotate(-180 750 153)" fill="#FBDCC1"/>
<circle cx="750" cy="137" r="4" transform="rotate(-180 750 137)" fill="#FBDCC1"/>
<circle cx="750" cy="121" r="4" transform="rotate(-180 750 121)" fill="#FBDCC1"/>
<circle cx="750" cy="105" r="4" transform="rotate(-180 750 105)" fill="#FBDCC1"/>
<circle cx="750" cy="89" r="4" transform="rotate(-180 750 89)" fill="#FBDCC1"/>
<circle cx="734" cy="153" r="4" transform="rotate(-180 734 153)" fill="#FBDCC1"/>
<circle cx="734" cy="137" r="4" transform="rotate(-180 734 137)" fill="#FBDCC1"/>
<circle cx="734" cy="121" r="4" transform="rotate(-180 734 121)" fill="#FBDCC1"/>
<circle cx="734" cy="105" r="4" transform="rotate(-180 734 105)" fill="#FBDCC1"/>
<circle cx="734" cy="89" r="4" transform="rotate(-180 734 89)" fill="#FBDCC1"/>
<circle cx="720" cy="137" r="4" transform="rotate(-180 720 137)" fill="#FBDCC1"/>
<circle cx="720" cy="121" r="4" transform="rotate(-180 720 121)" fill="#FBDCC1"/>
<circle cx="720" cy="105" r="4" transform="rotate(-180 720 105)" fill="#FBDCC1"/>
<circle cx="720" cy="89" r="4" transform="rotate(-180 720 89)" fill="#FBDCC1"/>
<circle cx="704" cy="121" r="4" transform="rotate(-180 704 121)" fill="#FBDCC1"/>
<circle cx="704" cy="105" r="4" transform="rotate(-180 704 105)" fill="#FBDCC1"/>
<circle cx="704" cy="89" r="4" transform="rotate(-180 704 89)" fill="#FBDCC1"/>
<circle cx="688" cy="105" r="4" transform="rotate(-180 688 105)" fill="#FBDCC1"/>
<circle cx="688" cy="89" r="4" transform="rotate(-180 688 89)" fill="#FBDCC1"/>
<circle cx="672" cy="89" r="4" transform="rotate(-180 672 89)" fill="#FBDCC1"/>
<circle cx="172" cy="172" r="172" fill="#E9CEF2"/>
<circle cx="591.5" cy="512.5" r="69.5" fill="#F6B6B6"/>
<rect x="185.5" y="128.5" width="601" height="361" rx="4.5" fill="#FBFBFB" stroke="#BDBDBD"/>
<path d="M186 133C186 130.791 187.791 129 190 129H782C784.209 129 786 130.791 786 133V145H186V133Z" fill="#DEE1E6"/>
<rect x="186" y="145" width="600" height="24" fill="white"/>
<rect x="230.5" y="153.5" width="7" height="7" rx="0.5" stroke="#828282"/>
<circle cx="218" cy="157" r="3.5" stroke="#828282"/>
<path d="M189.646 156.646C189.451 156.842 189.451 157.158 189.646 157.354L192.828 160.536C193.024 160.731 193.34 160.731 193.536 160.536C193.731 160.34 193.731 160.024 193.536 159.828L190.707 157L193.536 154.172C193.731 153.976 193.731 153.66 193.536 153.464C193.34 153.269 193.024 153.269 192.828 153.464L189.646 156.646ZM198 156.5H190V157.5H198V156.5Z" fill="#828282"/>
<path d="M210.354 157.354C210.549 157.158 210.549 156.842 210.354 156.646L207.172 153.464C206.976 153.269 206.66 153.269 206.464 153.464C206.269 153.66 206.269 153.976 206.464 154.172L209.293 157L206.464 159.828C206.269 160.024 206.269 160.34 206.464 160.536C206.66 160.731 206.976 160.731 207.172 160.536L210.354 157.354ZM202 157.5L210 157.5L210 156.5L202 156.5L202 157.5Z" fill="#BDBDBD"/>
<rect x="246" y="152" width="480" height="10" rx="4.5" fill="#F1F3F4"/>
<rect x="256" y="155" width="4" height="4" rx="1" fill="#BDBDBD"/>
<rect x="264" y="155" width="56" height="4" rx="1" fill="#BDBDBD"/>
<path d="M522 131C522 129.895 522.895 129 524 129H604C605.105 129 606 129.895 606 131V145H522V131Z" fill="white"/>
<rect x="438" y="129" width="84" height="16" fill="#C4C4C4"/>
<rect x="354" y="129" width="84" height="16" fill="#C4C4C4"/>
<rect x="270" y="129" width="84" height="16" fill="#C4C4C4"/>
<path d="M186 133C186 130.791 187.791 129 190 129H270V145H186V133Z" fill="#C4C4C4"/>
<rect x="269" y="134" width="1" height="6" rx="0.5" fill="#828282"/>
<rect x="200" y="135" width="56" height="4" rx="1" fill="#ADADAD"/>
<rect x="284" y="135" width="56" height="4" rx="1" fill="#ADADAD"/>
<rect x="368" y="135" width="56" height="4" rx="1" fill="#ADADAD"/>
<rect x="452" y="135" width="56" height="4" rx="1" fill="#ADADAD"/>
<rect x="536" y="135" width="56" height="4" rx="1" fill="#ADADAD"/>
<rect x="353" y="134" width="1" height="6" rx="0.5" fill="#828282"/>
<rect x="437" y="134" width="1" height="6" rx="0.5" fill="#828282"/>
<rect x="186" y="172" width="600" height="24" fill="#6FCF97"/>
<circle cx="294" cy="184" r="8" fill="#F2F2F2"/>
<rect x="312" y="180" width="80" height="8" rx="1" fill="#F2F2F2"/>
<rect x="650" y="181" width="36" height="6" rx="1" fill="#F2F2F2"/>
<rect x="604" y="181" width="36" height="6" rx="1" fill="#F2F2F2"/>
<rect x="558" y="181" width="36" height="6" rx="1" fill="#F2F2F2"/>
<rect x="512" y="181" width="36" height="6" rx="1" fill="#F2F2F2"/>
<rect x="186" y="196" width="600" height="110" fill="#F2F3F7"/>
<rect x="286" y="216" width="111" height="8" rx="1" fill="#BDBDBD"/>
<rect x="286" y="228" width="94" height="8" rx="1" fill="#BDBDBD"/>
<rect x="286" y="270" width="40" height="16" rx="2" fill="#F2C94C"/>
<rect x="336" y="270" width="40" height="16" rx="2" fill="#56CCF2"/>
<rect x="286" y="242" width="111" height="4" rx="1" fill="#BDBDBD"/>
<rect x="286" y="250" width="104" height="4" rx="1" fill="#BDBDBD"/>
<rect x="286" y="258" width="108" height="4" rx="1" fill="#BDBDBD"/>
<g filter="url(#filter0_d)">
<rect x="337.75" y="326.75" width="72.5" height="96.5" rx="2.25" fill="white" stroke="#F2F2F2" stroke-width="0.5"/>
<rect x="356" y="347" width="36" height="1" rx="0.5" fill="#F2F2F2"/>
<rect x="360" y="336" width="28" height="4" rx="1" fill="#B2B5C2"/>
<rect x="352" y="358" width="44" height="2" fill="#BDBDBD"/>
<rect x="352" y="364" width="40" height="2" fill="#BDBDBD"/>
<rect x="352" y="370" width="44" height="2" fill="#BDBDBD"/>
<rect x="352" y="376" width="40" height="2" fill="#BDBDBD"/>
<rect x="352" y="382" width="46" height="2" fill="#BDBDBD"/>
<rect x="352" y="388" width="20" height="2" fill="#BDBDBD"/>
</g>
<g filter="url(#filter1_d)">
<rect x="449.75" y="326.75" width="72.5" height="96.5" rx="2.25" fill="white" stroke="#F2F2F2" stroke-width="0.5"/>
<rect x="468" y="347" width="36" height="1" rx="0.5" fill="#F2F2F2"/>
<rect x="475" y="336" width="22" height="4" rx="1" fill="#B2B5C2"/>
<rect x="463" y="358" width="44" height="2" fill="#BDBDBD"/>
<rect x="463" y="364" width="40" height="2" fill="#BDBDBD"/>
<rect x="463" y="370" width="44" height="2" fill="#BDBDBD"/>
<rect x="463" y="376" width="46" height="2" fill="#BDBDBD"/>
<rect x="463" y="382" width="20" height="2" fill="#BDBDBD"/>
</g>
<g filter="url(#filter2_d)">
<rect x="561.75" y="326.75" width="72.5" height="96.5" rx="2.25" fill="white" stroke="#F2F2F2" stroke-width="0.5"/>
<rect x="580" y="347" width="36" height="1" rx="0.5" fill="#F2F2F2"/>
<rect x="582" y="336" width="32" height="4" rx="1" fill="#B2B5C2"/>
<rect x="575" y="358" width="41" height="2" fill="#BDBDBD"/>
<rect x="575" y="376" width="28" height="2" fill="#BDBDBD"/>
<rect x="575" y="364" width="40" height="2" fill="#BDBDBD"/>
<rect x="575" y="370" width="43" height="2" fill="#BDBDBD"/>
</g>
<path d="M186 443H786V485C786 487.209 784.209 489 782 489H190C187.791 489 186 487.209 186 485V443Z" fill="#F2F3F7"/>
<rect x="396" y="463" width="180" height="12" rx="2" fill="#C4C4C4"/>
<rect x="294" y="277" width="24" height="2" rx="1" fill="#725808"/>
<rect x="344" y="277" width="24" height="2" rx="1" fill="#2F80ED"/>
<rect x="498" y="212" width="188" height="74" rx="4" fill="white"/>
<circle cx="90" cy="281" r="4" fill="#FBDCC1"/>
<circle cx="90" cy="297" r="4" fill="#FBDCC1"/>
<circle cx="90" cy="313" r="4" fill="#FBDCC1"/>
<circle cx="90" cy="329" r="4" fill="#FBDCC1"/>
<circle cx="90" cy="345" r="4" fill="#FBDCC1"/>
<circle cx="90" cy="361" r="4" fill="#FBDCC1"/>
<circle cx="106" cy="297" r="4" fill="#FBDCC1"/>
<circle cx="106" cy="313" r="4" fill="#FBDCC1"/>
<circle cx="106" cy="329" r="4" fill="#FBDCC1"/>
<circle cx="106" cy="345" r="4" fill="#FBDCC1"/>
<circle cx="106" cy="361" r="4" fill="#FBDCC1"/>
<circle cx="120" cy="313" r="4" fill="#FBDCC1"/>
<circle cx="120" cy="329" r="4" fill="#FBDCC1"/>
<circle cx="120" cy="345" r="4" fill="#FBDCC1"/>
<circle cx="120" cy="361" r="4" fill="#FBDCC1"/>
<circle cx="136" cy="329" r="4" fill="#FBDCC1"/>
<circle cx="136" cy="345" r="4" fill="#FBDCC1"/>
<circle cx="136" cy="361" r="4" fill="#FBDCC1"/>
<circle cx="152" cy="345" r="4" fill="#FBDCC1"/>
<circle cx="152" cy="361" r="4" fill="#FBDCC1"/>
<circle cx="168" cy="361" r="4" fill="#FBDCC1"/>
<defs>
<filter id="filter0_d" x="333.5" y="322.5" width="85" height="109" filterUnits="userSpaceOnUse" color-interpolation-filters="sRGB">
<feFlood flood-opacity="0" result="BackgroundImageFix"/>
<feColorMatrix in="SourceAlpha" type="matrix" values="0 0 0 0 0 0 0 0 0 0 0 0 0 0 0 0 0 0 127 0"/>
<feOffset dx="2" dy="2"/>
<feGaussianBlur stdDeviation="3"/>
<feColorMatrix type="matrix" values="0 0 0 0 0 0 0 0 0 0 0 0 0 0 0 0 0 0 0.2 0"/>
<feBlend mode="normal" in2="BackgroundImageFix" result="effect1_dropShadow"/>
<feBlend mode="normal" in="SourceGraphic" in2="effect1_dropShadow" result="shape"/>
</filter>
<filter id="filter1_d" x="445.5" y="322.5" width="85" height="109" filterUnits="userSpaceOnUse" color-interpolation-filters="sRGB">
<feFlood flood-opacity="0" result="BackgroundImageFix"/>
<feColorMatrix in="SourceAlpha" type="matrix" values="0 0 0 0 0 0 0 0 0 0 0 0 0 0 0 0 0 0 127 0"/>
<feOffset dx="2" dy="2"/>
<feGaussianBlur stdDeviation="3"/>
<feColorMatrix type="matrix" values="0 0 0 0 0 0 0 0 0 0 0 0 0 0 0 0 0 0 0.2 0"/>
<feBlend mode="normal" in2="BackgroundImageFix" result="effect1_dropShadow"/>
<feBlend mode="normal" in="SourceGraphic" in2="effect1_dropShadow" result="shape"/>
</filter>
<filter id="filter2_d" x="557.5" y="322.5" width="85" height="109" filterUnits="userSpaceOnUse" color-interpolation-filters="sRGB">
<feFlood flood-opacity="0" result="BackgroundImageFix"/>
<feColorMatrix in="SourceAlpha" type="matrix" values="0 0 0 0 0 0 0 0 0 0 0 0 0 0 0 0 0 0 127 0"/>
<feOffset dx="2" dy="2"/>
<feGaussianBlur stdDeviation="3"/>
<feColorMatrix type="matrix" values="0 0 0 0 0 0 0 0 0 0 0 0 0 0 0 0 0 0 0.2 0"/>
<feBlend mode="normal" in2="BackgroundImageFix" result="effect1_dropShadow"/>
<feBlend mode="normal" in="SourceGraphic" in2="effect1_dropShadow" result="shape"/>
</filter>
</defs>
</svg>
